<svg xmlns="http://www.w3.org/2000/svg" viewBox="0 0 922.304 179.496">
  <g id="Group_14" data-name="Group 14" transform="translate(-4692.848 -430.617)">
    <g id="Group_8" data-name="Group 8">
      <path id="Path_60" data-name="Path 60" d="M4781.513,531.27h-7.726c-2.1,0-2.882.524-2.882,1.441v69.282c0,1.048.917,1.833,3.536,1.833h6.156c.916,0,1.179.524,1.179,1.048,0,.917-.132,1.44-.917,1.44-1.441,0-6.287-.392-16.633-.392-9.3,0-14.145.392-15.716.392-1.048,0-1.31-.523-1.31-1.571,0-.655.262-.917,1.048-.917h3.8c3.537,0,5.239-.524,5.239-2.358V568.727c0-1.179-.654-1.572-2.1-1.572h-34.576c-1.7,0-2.095.262-2.095,1.179v33.789c0,1.31,1.7,1.7,4.584,1.7h6.549c.785,0,1.047.393,1.047,1.048,0,.917-.393,1.44-1.047,1.44-1.442,0-6.942-.392-17.289-.392-9.3,0-16.9.392-18.335.392-.916,0-1.179-.523-1.179-1.571a.828.828,0,0,1,.917-.917h4.977c4.846,0,6.155-.785,6.155-2.226V533.235c0-1.179-1.309-1.965-5.5-1.965h-4.453c-.655,0-1.179-.131-1.179-.917,0-1.048.262-1.572.917-1.572,2.095,0,5.238.393,17.026.393,9.953,0,13.62-.393,15.06-.393,1.179,0,1.573.524,1.573,1.441,0,.655-.132,1.048-.917,1.048h-6.155c-2.358,0-2.751.917-2.751,2.226v28.683c0,1.047.655,1.44,1.834,1.44h34.707c1.7,0,2.225-.393,2.225-1.571V533.5c0-1.7-1.048-2.226-4.321-2.226h-6.286c-.918,0-1.179-.393-1.179-1.048,0-.917.13-1.441,1.048-1.441,1.177,0,6.547.393,16.9.393,13.227,0,14.8-.393,18.072-.393.787,0,1.179.393,1.179.786C4782.692,530.484,4782.43,531.27,4781.513,531.27Z" fill="#5f5e4a"/>
      <path id="Path_61" data-name="Path 61" d="M4925.061,606.314c-1.965,0-6.025-.392-16.11-.392-10.215,0-16.764.392-18.99.392-.524,0-.655-.655-.655-1.309s.131-1.179.655-1.179h3.8c5.762,0,7.335-1.833,7.335-3.536,0-1.31-1.048-4.715-3.275-11.132l-5.107-14.276c-.525-1.309-1.573-1.571-14.145-1.571-6.548,0-7.466.262-7.989,1.7l-5.763,15.324a39.166,39.166,0,0,0-2.488,10.608c0,1.31.786,2.881,3.929,2.881h5.894c.654,0,.917.393.917,1.31,0,.786-.131,1.178-.656,1.178-1.833,0-7.072-.392-16.37-.392a107.74,107.74,0,0,0-11.132.392c-.525,0-.656-.785-.656-1.44s.131-1.048.917-1.048h3.274c4.584,0,8.644-3.4,11.525-10.739l25.277-65.484c.263-.655,1.31-1.834,1.965-1.834.524,0,1.047.655,1.572,2.1l26.848,71.639a6.329,6.329,0,0,0,6.417,4.322h3.144a.964.964,0,0,1,1.047,1.048C4926.239,605.659,4925.977,606.314,4925.061,606.314Zm-35.493-40.338-6.548-18.728c-.393-1.31-.655-1.7-1.048-1.7s-.654.524-1.048,1.7l-7.072,18.859a10.037,10.037,0,0,0-.655,2.489c0,.786,1.049,1.179,6.942,1.179,8.775,0,10.215-.132,10.215-1.179A8.256,8.256,0,0,0,4889.568,565.976Z" fill="#5f5e4a"/>
      <path id="Path_62" data-name="Path 62" d="M5069,606.314c-1.179,0-8.513-.392-20.693-.392a3.332,3.332,0,0,1-3.405-2.1c-10.478-20.3-11.525-37.85-26.456-37.85-2.75,0-3.143.263-3.143,2.1V598.98c0,4.061.917,4.846,3.536,4.846h7.466c1.441,0,1.964.131,1.964.917,0,1.048-.393,1.571-1.572,1.571-1.833,0-7.595-.392-18.2-.392-12.7,0-17.026.392-18.99.392-.786,0-1.31-.655-1.31-1.7,0-.524.393-.786,1.047-.786h3.406c8.12,0,9.036-.916,9.036-4.191V537.426c0-5.5-.523-6.156-8.513-6.156h-5.237c-1.179,0-1.573-.262-1.573-1.571a.935.935,0,0,1,1.048-.918c1.31,0,7.6.393,19.776.393,10.478,0,17.681-.523,22.4-.523,16.24,0,23.836,6.679,23.836,17.811,0,9.168-8.775,14.669-17.157,16.764-1.048.262-1.834.524-1.834,1.048s.786.786,1.7,1.178c8.382,3.275,12.179,13.228,16.764,23.182,5.631,12.442,8.119,15.192,14.144,15.192H5069c.786,0,1.048.524,1.048,1.31S5069.785,606.314,5069,606.314Zm-45.184-75.306c-6.941,0-8.513,1.964-8.513,5.763v22.657c0,3.405.393,3.929,10.347,3.929,4.191,0,7.333-1.178,9.429-3.274,2.751-2.75,3.8-6.941,3.8-12.966C5038.877,536.771,5034.686,531.008,5023.815,531.008Z" fill="#5f5e4a"/>
      <path id="Path_63" data-name="Path 63" d="M5203.9,531.27h-3.929c-2.357,0-5.37.393-10.085,12.7l-24.753,64.96a2.216,2.216,0,0,1-1.833,1.179c-.524,0-.785-.393-1.048-1.179l-24.622-66.4c-3.929-10.739-5.631-11.263-9.168-11.263h-3.536c-.917,0-1.309-.262-1.309-.917,0-.917.392-1.572,1.048-1.572,1.7,0,7.988.393,17.549.393,10.347,0,16.5-.393,17.943-.393.654,0,.917.524.917,1.834,0,.393-.394.655-1.179.655h-3.667c-4.584,0-6.156.786-6.156,3.536a22.374,22.374,0,0,0,1.572,6.418l16.109,45.707c.393.917.655,1.7,1.178,1.7.393,0,.787-.655,1.179-1.572l15.847-42.564c2.1-5.5,2.751-8.644,2.751-10.74,0-1.571-1.7-2.488-5.763-2.488h-4.322a.828.828,0,0,1-.917-.917c0-.786.263-1.572,1.048-1.572,1.572,0,5.37.393,12.311.393,8.382,0,11.525-.393,13.1-.393.655,0,1.048.524,1.048,1.441C5205.21,531.008,5204.686,531.27,5203.9,531.27Z" fill="#5f5e4a"/>
      <path id="Path_64" data-name="Path 64" d="M5333.563,605.4a1.5,1.5,0,0,1-1.441,1.179,137.283,137.283,0,0,0-14.013-.655h-30.515c-15.062,0-17.812.392-19.253.392-.917,0-1.179-.655-1.179-1.571,0-.655.525-.917,1.179-.917h6.549c4.191,0,4.714-.916,4.714-2.488v-67.58c0-1.964-1.048-2.488-3.535-2.488h-6.811c-1.048,0-1.31-.262-1.31-1.571,0-.525.131-.918,1.31-.918,1.441,0,2.881.393,15.716.393h36.933c2.881,0,3.8-2.226,4.714-2.226,1.31,0,1.966.393,2.227,1.965,1.441,9.953,3.668,19.252,3.668,20.431,0,.392-.525.654-1.179.654s-1.7-2.095-2.1-3.143c-4.322-9.822-7.857-15.061-23.967-15.061-9.692,0-12.049.655-12.049,5.632v26.586c0,1.179.262,1.7,4.191,1.7,10.87,0,14.014-.393,16.109-2.489,1.833-1.833,2.619-5.893,2.619-10.477a.7.7,0,0,1,.787-.786c.654,0,1.178.262,1.178.786,0,12.311,1.048,25.539,1.048,27.372,0,.393-.393.655-1.179.655-.524,0-.916-.393-1.047-1.572-.525-4.322-1.31-7.072-2.883-8.643-1.833-1.834-4.321-2.489-13.358-2.489-7.072,0-7.465.262-7.465,1.441v26.848c0,6.025,2.62,7.2,9.429,7.2,22.265,0,27.373-4.191,31.957-14.8.786-1.834,1.179-2.227,2.1-2.227,1.047,0,1.441.393,1.441,1.31C5338.148,589.42,5336.444,595.051,5333.563,605.4Z" fill="#5f5e4a"/>
      <path id="Path_65" data-name="Path 65" d="M5439.652,607.755c-15.062,0-18.074-4.977-20.169-4.977-.786,0-1.7,1.834-2.227,1.834a1,1,0,0,1-1.048-.917c-.785-4.322-2.489-21.479-2.489-22.134,0-.523.917-.785,1.441-.785.393,0,.786.785,1.048,1.571,1.7,6.418,4.06,12.835,8.513,17.288,3.536,3.536,8.513,5.894,15.585,5.894a15.126,15.126,0,0,0,10.87-4.191,14.313,14.313,0,0,0,4.061-10.478c0-5.5-3.668-9.036-9.3-12.311-5.5-3.143-12.18-5.762-17.55-8.774-7.072-3.93-12.442-9.169-12.442-21.479a20.794,20.794,0,0,1,20.693-20.955c10.608,0,14.668,3.536,16.5,3.536.786,0,1.965-3.012,2.488-3.012.656,0,1.31.393,1.31.786.393,4.452,1.964,20.038,1.964,20.693,0,.392-.654.785-1.309.785-.393,0-.524-.393-.917-1.178-1.964-4.715-4.06-10.609-8.12-14.669a15.046,15.046,0,0,0-11.132-4.583c-7.6,0-12.7,4.714-12.7,13.1,0,7.465,5.108,10.871,9.953,13.359,5.5,2.75,12.573,5.5,17.681,8.775,6.156,3.929,10.871,9.168,10.871,18.073C5463.226,597.932,5453.141,607.755,5439.652,607.755Z" fill="#5f5e4a"/>
      <path id="Path_66" data-name="Path 66" d="M5613.973,548.951c-.392,0-.786-.524-1.048-1.048a41.733,41.733,0,0,0-6.155-8.644c-4.06-4.06-10.084-7.6-20.431-7.6-4.846,0-5.37,1.048-5.37,4.322v63.65c0,3.012.655,4.191,8.643,4.191h5.37c.656,0,1.179.131,1.179.786,0,1.047-.262,1.7-.917,1.7-1.833,0-6.417-.392-19.776-.392-13.751,0-20.43.392-21.74.392-.917,0-1.179-.523-1.179-1.309,0-1.048.393-1.179,1.179-1.179h6.024c7.334,0,7.6-1.179,7.6-4.715V535.854c0-3.405-.656-4.584-11.525-4.584a15.761,15.761,0,0,0-11.4,5.108c-3.929,3.929-6.286,9.037-7.858,12.18-.392.786-.655,1.7-1.048,1.7-.785,0-1.44-.262-1.44-.654,0-.786,2.226-15.979,2.881-21.348.131-.655.392-.917.917-.917.393,0,1.048.393,1.833.524,1.572.393,9.3,1.309,36.933,1.309,23.836,0,30.123-1.571,31.825-2.226.524-.131,1.179-.655,1.572-.655s.654.262.786.786c.786,4.453,4.322,20.693,4.322,21.217C5615.152,548.558,5614.5,548.951,5613.973,548.951Z" fill="#5f5e4a"/>
    </g>
    <g id="Group_10" data-name="Group 10">
      <path id="Path_67" data-name="Path 67" d="M5126.874,456.274h-10.568c-.353,0-.494-.282-.494-1.057,0-1.762.141-2.325.564-2.325h10.5c.352,0,.494.563.494,2.395C5127.368,455.992,5127.156,456.274,5126.874,456.274Z" fill="#5f5e4a"/>
      <g id="Group_9" data-name="Group 9">
        <path id="Path_68" data-name="Path 68" d="M4907.883,433.576h-4.156c-1.128,0-1.551.282-1.551.775v37.273c0,.564.494.986,1.9.986h3.312c.492,0,.634.282.634.564,0,.493-.072.775-.494.775-.774,0-3.382-.211-8.948-.211-5,0-7.609.211-8.456.211-.562,0-.7-.282-.7-.845,0-.353.142-.494.564-.494h2.044c1.9,0,2.817-.282,2.817-1.268V453.728c0-.634-.351-.846-1.127-.846h-18.6c-.916,0-1.127.141-1.127.634v18.178c0,.7.915.916,2.466.916h3.523c.423,0,.564.212.564.564,0,.493-.212.775-.564.775-.775,0-3.734-.211-9.3-.211-5,0-9.09.211-9.866.211-.492,0-.634-.282-.634-.845a.446.446,0,0,1,.494-.494h2.678c2.607,0,3.311-.422,3.311-1.2V434.633c0-.634-.7-1.057-2.959-1.057h-2.4c-.352,0-.634-.071-.634-.493,0-.564.14-.846.493-.846,1.128,0,2.819.212,9.16.212,5.355,0,7.328-.212,8.1-.212.634,0,.846.282.846.776,0,.352-.07.563-.493.563h-3.312c-1.268,0-1.479.493-1.479,1.2V450.2c0,.564.352.776.987.776h18.671c.916,0,1.2-.212,1.2-.846v-15.36c0-.916-.563-1.2-2.325-1.2h-3.381c-.494,0-.634-.211-.634-.563,0-.494.07-.776.563-.776.634,0,3.522.212,9.09.212,7.115,0,7.96-.212,9.722-.212.423,0,.634.212.634.423C4908.517,433.153,4908.376,433.576,4907.883,433.576Z" fill="#5f5e4a"/>
        <path id="Path_69" data-name="Path 69" d="M4971.014,473.949c-1.056,0-3.241-.211-8.667-.211-5.5,0-9.019.211-10.215.211-.283,0-.353-.352-.353-.705s.07-.634.353-.634h2.043c3.1,0,3.945-.986,3.945-1.9,0-.7-.564-2.536-1.762-5.989l-2.747-7.68c-.283-.7-.845-.845-7.609-.845-3.523,0-4.017.14-4.3.916l-3.1,8.243a21.011,21.011,0,0,0-1.34,5.707c0,.705.423,1.55,2.114,1.55h3.171c.353,0,.493.212.493.705,0,.423-.07.634-.352.634-.986,0-3.805-.211-8.807-.211a58,58,0,0,0-5.99.211c-.281,0-.351-.423-.351-.775s.07-.564.492-.564h1.762c2.466,0,4.65-1.832,6.2-5.777l13.6-35.23c.142-.352.706-.986,1.057-.986.283,0,.564.352.847,1.127l14.443,38.541a3.4,3.4,0,0,0,3.453,2.325h1.691a.519.519,0,0,1,.564.564C4971.649,473.6,4971.507,473.949,4971.014,473.949Zm-19.094-21.7-3.524-10.076c-.211-.7-.351-.916-.562-.916s-.353.282-.564.916l-3.806,10.146a5.46,5.46,0,0,0-.351,1.339c0,.423.563.634,3.734.634,4.721,0,5.5-.07,5.5-.634A4.428,4.428,0,0,0,4951.92,452.248Z" fill="#5f5e4a"/>
        <path id="Path_70" data-name="Path 70" d="M5027.24,473.667c-.07.282-.211.564-.492.564a45.019,45.019,0,0,0-8.385-.493h-19.307c-5.425,0-6.693.211-7.538.211-.494,0-.775-.211-.775-.845,0-.353.211-.494,1.549-.494h2.89c2.536,0,2.959-.422,2.959-2.395V435.9c0-1.62-.7-2.325-4.58-2.325h-1.2c-.494,0-.7-.141-.7-.634a.688.688,0,0,1,.775-.7c.564,0,2.185.212,9.3.212,6.411,0,8.524-.212,9.159-.212.563,0,.705.212.705.7a.559.559,0,0,1-.634.634H5008c-2.044,0-2.536.423-2.536,1.339V469.44c0,2.536,2.183,3.03,9.3,3.03,8.807,0,12.4-5.567,13.669-9.935.14-.493.423-.846.634-.846.353,0,.846.141.846.423C5029.918,462.464,5027.593,471.131,5027.24,473.667Z" fill="#5f5e4a"/>
        <path id="Path_71" data-name="Path 71" d="M5088.187,443.229c-.212,0-.353-.281-.493-.634-2.255-5.355-4.017-8.737-13.317-8.737-5.214,0-6.13.493-6.13,3.734V450.98c0,.916.212,1.127,3.382,1.127,4.932,0,6.411-.352,7.4-1.339,1.056-1.056,1.409-2.888,1.762-6.2,0-.282.211-.352.634-.352.281,0,.492.07.492.282,0,3.382.142,15.571.142,15.923,0,.211-.353.353-.846.353-.211,0-.422-.282-.422-.564-.282-2.889-.493-4.58-1.48-5.566-1.056-1.058-2.4-1.269-7.892-1.269-2.958,0-3.17.141-3.17.916V471.2c0,.846.423,1.409,3.523,1.409h3.734c.494,0,.634.141.634.494,0,.493-.14.845-.564.845-1.268,0-3.663-.211-11.907-.211-5.778,0-7.891.211-8.666.211-.423,0-.635-.211-.635-.705s.353-.634.776-.634h2.747c2.466,0,3.03-.634,3.03-1.479V435.338c0-1.339-.634-1.762-3.382-1.762h-3.171q-.634,0-.634-.845c0-.282.142-.494.634-.494,1.127,0,2.114.212,8.455.212h19.87c2.114,0,3.522-1.339,3.875-1.339s.423.141.564.564a112.769,112.769,0,0,1,1.832,11.274C5088.962,443.088,5088.468,443.229,5088.187,443.229Z" fill="#5f5e4a"/>
        <path id="Path_72" data-name="Path 72" d="M5176.694,474.09c-3.664,0-8.455-.352-13.528-.352-6.411,0-7.117.211-7.751.211-.422,0-.634-.423-.634-.916,0-.282.212-.423.493-.423h2.4c2.819,0,4.087-.563,4.087-1.691V435.338c0-1.48-.987-1.762-2.748-1.762h-3.382c-.423,0-.634-.352-.634-.775,0-.493.141-.564.634-.564,1.268,0,4.156.212,9.018.212,3.523,0,7.681-.282,10.64-.282,7.679,0,11.766,3.312,11.766,9.441,0,4.792-5.143,7.962-8.455,9.09-.422.141-1.056.282-1.056.634s.634.564,1.056.564c5.215.422,12.26,4.086,12.26,10.428C5190.856,469.933,5186.206,474.09,5176.694,474.09Zm-4.228-40.655c-2.959,0-3.381.494-3.381,2.607v14.585c0,.846.351.987,3.381.987,4.721,0,7.258-2.748,7.258-9.512C5179.724,436.042,5177.54,433.435,5172.466,433.435Zm.846,19.659c-3.946,0-4.227.281-4.227,1.408v13.74c0,3.593,1.69,4.439,5.354,4.439,4.862,0,8.667-3.1,8.667-10.71C5183.106,455.63,5179.864,453.094,5173.312,453.094Z" fill="#5f5e4a"/>
        <path id="Path_73" data-name="Path 73" d="M5253.282,473.949c-1.057,0-3.241-.211-8.667-.211-5.5,0-9.019.211-10.216.211-.282,0-.352-.352-.352-.705s.07-.634.352-.634h2.044c3.1,0,3.945-.986,3.945-1.9,0-.7-.564-2.536-1.762-5.989l-2.747-7.68c-.283-.7-.846-.845-7.61-.845-3.522,0-4.016.14-4.3.916l-3.1,8.243a21.041,21.041,0,0,0-1.339,5.707c0,.705.423,1.55,2.113,1.55h3.172c.352,0,.492.212.492.705,0,.423-.07.634-.351.634-.987,0-3.805-.211-8.808-.211a57.991,57.991,0,0,0-5.989.211c-.282,0-.352-.423-.352-.775s.07-.564.493-.564h1.762c2.466,0,4.649-1.832,6.2-5.777l13.6-35.23c.141-.352.705-.986,1.057-.986.282,0,.564.352.846,1.127l14.444,38.541a3.4,3.4,0,0,0,3.452,2.325h1.691a.519.519,0,0,1,.564.564C5253.916,473.6,5253.775,473.949,5253.282,473.949Zm-19.094-21.7-3.524-10.076c-.211-.7-.351-.916-.563-.916s-.352.282-.564.916l-3.805,10.146a5.439,5.439,0,0,0-.351,1.339c0,.423.562.634,3.734.634,4.72,0,5.5-.07,5.5-.634A4.453,4.453,0,0,0,5234.188,452.248Z" fill="#5f5e4a"/>
        <path id="Path_74" data-name="Path 74" d="M5318.385,472.047c-1.549,1.268-4.932,2.325-8.243,2.325-2.748,0-5.425-.775-6.834-2.889-9.372-13.81-9.23-20.433-13.951-20.433a1.436,1.436,0,0,0-1.621,1.48v18.812c0,.916.563,1.268,1.832,1.268h3.17c.423,0,.706.212.706.776,0,.422-.212.563-.564.563-1.128,0-4.581-.211-9.23-.211-5.708,0-8.244.211-9.09.211-.423,0-.634-.211-.634-.705s.211-.634.705-.634h3.311c1.621,0,2.466-.211,2.466-1.056V435.972c0-1.832-.492-2.4-3.03-2.4h-1.9c-.494,0-.775-.141-.775-.493,0-.564.141-.846.564-.846.987,0,2.889.212,7.891.212,5.354,0,8.807-.212,9.794-.212.494,0,.564.352.564.776s-.142.563-.564.563h-2.889c-1.479,0-2.325.282-2.325.846v15.219c0,.352.212.563.634.563,1.761,0,5.919-3.1,7.821-5.495,3.594-4.369,5-8.526,7.468-10.992a7.046,7.046,0,0,1,5.356-2.114c2.606,0,4.368,1.691,4.368,3.8a3.313,3.313,0,0,1-3.241,3.171c-3.241,0-3.03-1.9-4.721-1.9-1.479,0-3.17,2.537-5.285,5.285a31.97,31.97,0,0,1-5.424,5.919c-.212.14-.353.211-.353.422s.211.282.423.352c2.747.634,8.314,8.6,12.541,15.431,2.889,4.65,6.06,7.4,8.879,7.4a11.827,11.827,0,0,0,2.113-.493c.282,0,.423.07.423.352A.715.715,0,0,1,5318.385,472.047Z" fill="#5f5e4a"/>
        <path id="Path_75" data-name="Path 75" d="M5376.022,473.456a.81.81,0,0,1-.776.634,73.989,73.989,0,0,0-7.539-.352H5351.29c-8.1,0-9.583.211-10.358.211-.493,0-.634-.352-.634-.845,0-.353.283-.494.634-.494h3.524c2.255,0,2.536-.493,2.536-1.338V434.915c0-1.057-.564-1.339-1.9-1.339h-3.664c-.564,0-.7-.141-.7-.845,0-.282.071-.494.7-.494.775,0,1.549.212,8.455.212h19.869c1.551,0,2.044-1.2,2.536-1.2.706,0,1.058.212,1.2,1.057.776,5.355,1.974,10.358,1.974,10.992,0,.211-.283.352-.634.352s-.917-1.128-1.128-1.691c-2.325-5.285-4.227-8.1-12.894-8.1-5.214,0-6.482.352-6.482,3.03v14.3c0,.634.14.916,2.255.916,5.847,0,7.538-.211,8.666-1.339.987-.986,1.409-3.17,1.409-5.636a.374.374,0,0,1,.423-.423c.353,0,.634.141.634.423,0,6.623.564,13.739.564,14.726,0,.211-.211.352-.634.352-.283,0-.494-.212-.564-.846-.281-2.325-.7-3.8-1.551-4.65-.985-.986-2.324-1.339-7.186-1.339-3.805,0-4.016.141-4.016.775v14.444c0,3.241,1.409,3.876,5.072,3.876,11.979,0,14.726-2.255,17.192-7.962.423-.987.634-1.2,1.128-1.2.564,0,.776.211.776.7C5378.488,464.86,5377.571,467.89,5376.022,473.456Z" fill="#5f5e4a"/>
        <path id="Path_76" data-name="Path 76" d="M5426.68,474.09c-5.213,0-10.145-.352-13.528-.352-5.636,0-8.6.211-9.864.211-.493,0-.634-.282-.634-.916,0-.282.141-.423.634-.423h3.381c3.03,0,3.383-.563,3.383-1.9V434.985c0-1.127-.7-1.409-3.383-1.409h-3.8c-.422,0-.564-.211-.564-.634,0-.493.072-.7.423-.7,1.832,0,6.06.212,15.43.212,19.447,0,29.664,5.355,29.664,21.561C5447.818,467.114,5436.192,474.09,5426.68,474.09Zm-5-40.373c-3.875,0-4.3,1.127-4.3,2.959v32.975c0,2.677,1.832,3.382,5.213,3.382,8.949,0,16.629-4.791,16.629-19.094C5439.222,439.988,5430.978,433.717,5421.678,433.717Z" fill="#5f5e4a"/>
      </g>
    </g>
    <g id="Group_13" data-name="Group 13">
      <g id="Group_11" data-name="Group 11">
        <rect id="Rectangle_1" data-name="Rectangle 1" width="75.949" height="3.078" transform="translate(4747.839 453.006)" fill="#5f5e4a"/>
      </g>
      <g id="Group_12" data-name="Group 12">
        <rect id="Rectangle_2" data-name="Rectangle 2" width="75.949" height="3.078" transform="translate(5484.212 453.006)" fill="#5f5e4a"/>
      </g>
    </g>
  </g>
</svg>
